<svg height="400" style="style=&quot;outline: 5px solid #800000;&quot;" viewBox="0 0 400 400" width="400" xmlns="http://www.w3.org/2000/svg">
<rect fill="#ffffff" height="400" width="400" x="0" y="0"/>
<path d="M200,200 L200,200 L520,200 L200,200 L200,200 L200,200 L200,80 L200,200 L200,200 L0,200 L0,200 L0,280 L0,280 L-280,280 L240,280 L240,280 L240,280 L-80,280 L560,280 L200,200 L160,200 L-120,200 L400,200 L400,200 L400,400 L400,400 L520,400 L-40,400 L240,400 L240,400 L240,400 L240,400 L240,320 L240,0 L240,0 L520,0 L200,0 L200,200 L200,360 L200,360 L520,360" fill="none" stroke="#2f2f2f" stroke-opacity="0.9" stroke-width="5"/>
<rect fill="#ffffff" fill-opacity="0.0" height="400" stroke="#cccccc" stroke-width="15" width="400" x="0" y="0"/>
</svg>